<?xml version="1.0" ?>
<svg width="800px" height="800px" viewBox="0 0 96 96" xmlns="http://www.w3.org/2000/svg">
  <!-- Siren top -->
  <path d="M55,12H43V6a4,4,0,0,1,4-4h4a4,4,0,0,1,4,4Z" style="fill:#DC2626"/>
  <path d="M55,12H43V6a4,4,0,0,1,4-4h4a4,4,0,0,1,4,4Z" style="fill:none;stroke:#0F172A;stroke-linecap:round;stroke-linejoin:round;stroke-width:4px"/>
  <!-- Rear wheel arch right -->
  <path d="M60,83H75a0,0,0,0,1,0,0v7a4,4,0,0,1-4,4H64a4,4,0,0,1-4-4V83A0,0,0,0,1,60,83Z" style="fill:#1E40AF"/>
  <path d="M60,83H75a0,0,0,0,1,0,0v7a4,4,0,0,1-4,4H64a4,4,0,0,1-4-4V83A0,0,0,0,1,60,83Z" style="fill:none;stroke:#0F172A;stroke-linecap:round;stroke-linejoin:round;stroke-width:4px"/>
  <!-- Rear wheel arch left -->
  <path d="M21,83H36a0,0,0,0,1,0,0v7a4,4,0,0,1-4,4H25a4,4,0,0,1-4-4V83A0,0,0,0,1,21,83Z" style="fill:#1E40AF"/>
  <path d="M21,83H36a0,0,0,0,1,0,0v7a4,4,0,0,1-4,4H25a4,4,0,0,1-4-4V83A0,0,0,0,1,21,83Z" style="fill:none;stroke:#0F172A;stroke-linecap:round;stroke-linejoin:round;stroke-width:4px"/>
  <!-- Side mirrors -->
  <polygon points="83 51 83 37 90 37 90 47 83 51" style="fill:none;stroke:#0F172A;stroke-linecap:round;stroke-linejoin:round;stroke-width:4px"/>
  <polygon points="13 51 13 37 6 37 6 47 13 51" style="fill:none;stroke:#0F172A;stroke-linecap:round;stroke-linejoin:round;stroke-width:4px"/>
  <!-- Body top (cabin) -->
  <path d="M13,53V24A12,12,0,0,1,25,12H71A12,12,0,0,1,83,24V53Z" style="fill:#3B82F6"/>
  <!-- Body bottom -->
  <path d="M13,75V53H83V75a8,8,0,0,1-8,8H21A8,8,0,0,1,13,75Z" style="fill:#EFF6FF"/>
  <!-- Wheel hub left -->
  <circle cx="25.5" cy="68.5" r="5.5" style="fill:#1A56DB"/>
  <circle cx="25.5" cy="68.5" r="5.5" style="fill:none;stroke:#0F172A;stroke-linecap:round;stroke-linejoin:round;stroke-width:4px"/>
  <!-- Medical cross -->
  <line style="fill:none;stroke:#0D9488;stroke-linecap:round;stroke-linejoin:round;stroke-width:4px" x1="48" x2="48" y1="62" y2="74"/>
  <line style="fill:none;stroke:#0D9488;stroke-linecap:round;stroke-linejoin:round;stroke-width:4px" x1="54" x2="42" y1="68" y2="68"/>
  <!-- Body highlight panel -->
  <path d="M76,53V68A15,15,0,0,1,61,83H76v-.07A8,8,0,0,0,83,75V53Z" style="fill:#BFDBFE"/>
  <!-- Cabin highlight -->
  <path d="M76,13.08A12.06,12.06,0,0,0,71,12H61A15,15,0,0,1,76,27V53h7V24A12,12,0,0,0,76,13.08Z" style="fill:#1A56DB"/>
  <!-- Outline border -->
  <path d="M24.5,12.5h51a8,8,0,0,1,8,8v54a8,8,0,0,1-8,8h-51a12,12,0,0,1-12-12v-46a12,12,0,0,1,12-12Z" style="fill:none;stroke:#0F172A;stroke-linecap:round;stroke-linejoin:round;stroke-width:4px" transform="translate(95.5 -0.5) rotate(90)"/>
  <!-- Wheel hub right -->
  <circle cx="70.5" cy="68.5" r="5.5" style="fill:#1A56DB"/>
  <circle cx="70.5" cy="68.5" r="5.5" style="fill:none;stroke:#0F172A;stroke-linecap:round;stroke-linejoin:round;stroke-width:4px"/>
  <!-- Divider line -->
  <line style="fill:none;stroke:#0F172A;stroke-linecap:round;stroke-linejoin:round;stroke-width:4px" x1="83" x2="13" y1="53" y2="53"/>
</svg>
